<?xml version="1.0" standalone="no"?>
<svg viewBox="0 0 200 200" xmlns="http://www.w3.org/2000/svg">
  <path fill="#F87171" d="M43.7,-77C56.7,-68.1,67.6,-56.7,73.7,-43.4C79.7,-30.2,81,-15.1,81.8,0.4C82.5,15.9,82.7,31.9,76.8,45.4C70.8,58.9,58.8,69.9,45,75.7C31.2,81.4,15.6,82,1.4,79.5C-12.7,77,-25.4,71.6,-36.4,64.1C-47.3,56.7,-56.4,47.3,-63.8,36.2C-71.2,25.2,-77,12.6,-77.3,-0.2C-77.7,-13.1,-72.8,-26.1,-67.1,-40.1C-61.4,-54.2,-55,-69.2,-43.7,-79.1C-32.4,-88.9,-16.2,-93.6,-0.5,-92.9C15.3,-92.1,30.6,-85.8,43.7,-77Z" transform="translate(100 100)" />
</svg>
