<?xml version="1.0" standalone="no"?>
<svg viewBox="0 0 200 200" xmlns="http://www.w3.org/2000/svg">
  <path fill="#F87171" d="M42.4,-74C53.1,-67.2,58.7,-52.2,66.7,-38.5C74.7,-24.8,85.1,-12.4,85.7,0.4C86.4,13.1,77.2,26.2,68.1,37.9C58.9,49.6,49.7,59.9,38.3,66.6C27,73.3,13.5,76.4,1.5,73.8C-10.5,71.2,-20.9,62.8,-31.6,55.7C-42.3,48.6,-53.2,42.8,-63.7,33.7C-74.1,24.7,-84.1,12.3,-87.6,-2C-91.1,-16.4,-88.1,-32.7,-78.1,-42.6C-68.1,-52.5,-51.2,-55.9,-37,-60.7C-22.8,-65.5,-11.4,-71.7,2.2,-75.5C15.8,-79.4,31.7,-80.8,42.4,-74Z" transform="translate(100 100)" />
</svg>
