<?xml version="1.0" standalone="no"?>
<svg viewBox="0 0 200 200" xmlns="http://www.w3.org/2000/svg">
  <path fill="#F87171" d="M29.7,-54.5C40.3,-45.4,51.8,-41,56.5,-32.7C61.2,-24.3,59.2,-12.2,60,0.4C60.8,13.1,64.3,26.1,62.5,39.5C60.7,52.8,53.5,66.5,42.1,68.4C30.8,70.4,15.4,60.7,-0.4,61.3C-16.1,62,-32.3,72.9,-43.5,70.9C-54.6,68.8,-60.8,53.7,-68,39.8C-75.1,25.8,-83.3,12.9,-79.5,2.2C-75.7,-8.5,-60,-17,-49.6,-25.5C-39.2,-33.9,-34.2,-42.2,-26.8,-53.1C-19.5,-64,-9.7,-77.5,-0.1,-77.3C9.6,-77.2,19.2,-63.5,29.7,-54.5Z" transform="translate(100 100)" />
</svg>
