<?xml version="1.0" standalone="no"?>
<svg viewBox="0 0 200 200" xmlns="http://www.w3.org/2000/svg">
  <path fill="#4ADE80" d="M41.9,-65C52.7,-58.3,58.8,-44,61.8,-30.3C64.8,-16.6,64.8,-3.7,65.4,11.2C66,26,67.3,42.7,60.4,54.5C53.5,66.2,38.5,73,22.5,78.5C6.6,84,-10.3,88.3,-20.9,80.8C-31.6,73.3,-36,54.2,-41.5,40.2C-46.9,26.2,-53.5,17.4,-60.2,5.4C-67,-6.6,-74,-21.8,-71.9,-35.4C-69.7,-49,-58.3,-61,-44.8,-66.4C-31.2,-71.8,-15.6,-70.7,0,-70.7C15.6,-70.6,31.1,-71.6,41.9,-65Z" transform="translate(100 100)" />
</svg>
